<?xml version="1.0" encoding="UTF-8"?>
<svg width="2048px" height="2048px" viewBox="0 0 2048 2048" version="1.1" xmlns="http://www.w3.org/2000/svg" xmlns:xlink="http://www.w3.org/1999/xlink">
    <!-- Generator: Sketch 43.1 (39012) - http://www.bohemiancoding.com/sketch -->
    <title>dry-rb-logo-outline-color-2048</title>
    <desc>Created with Sketch.</desc>
    <defs>
        <linearGradient x1="50%" y1="0%" x2="50%" y2="100%" id="linearGradient-1">
            <stop stop-color="#28898B" offset="0%"></stop>
            <stop stop-color="#034D75" offset="100%"></stop>
        </linearGradient>
        <linearGradient x1="86.5553253%" y1="-15.7591943%" x2="20.2872555%" y2="114.273756%" id="linearGradient-2">
            <stop stop-color="#308395" offset="0%"></stop>
            <stop stop-color="#116985" offset="100%"></stop>
        </linearGradient>
    </defs>
    <g id="Icons" stroke="none" stroke-width="1" fill="none" fill-rule="evenodd">
        <g id="dry-rb-logo-outline-color-2048">
            <circle id="Oval" stroke="url(#linearGradient-1)" stroke-width="50" cx="1024" cy="1024" r="975"></circle>
            <path d="M1449.5,1202 C1368.59028,1202 1303,1136.40972 1303,1055.5 C1303,974.590284 1368.59028,909 1449.5,909 C1530.40972,909 1596,974.590284 1596,1055.5 C1596,1136.40972 1530.40972,1202 1449.5,1202 Z M566.5,1202 C485.590284,1202 420,1136.40972 420,1055.5 C420,974.590284 485.590284,909 566.5,909 C647.409716,909 713,974.590284 713,1055.5 C713,1136.40972 647.409716,1202 566.5,1202 Z M1007.5,1644 C926.590284,1644 861,1578.40972 861,1497.5 C861,1416.59028 926.590284,1351 1007.5,1351 C1088.40972,1351 1154,1416.59028 1154,1497.5 C1154,1578.40972 1088.40972,1644 1007.5,1644 Z M1007.5,1202 C926.590284,1202 861,1136.40972 861,1055.5 C861,974.590284 926.590284,909 1007.5,909 C1088.40972,909 1154,974.590284 1154,1055.5 C1154,1136.40972 1088.40972,1202 1007.5,1202 Z M1449.5,761 C1368.59028,761 1303,695.409716 1303,614.5 C1303,533.590284 1368.59028,468 1449.5,468 C1530.40972,468 1596,533.590284 1596,614.5 C1596,695.409716 1530.40972,761 1449.5,761 Z" id="dry-rb-logo" fill="url(#linearGradient-2)"></path>
        </g>
    </g>
</svg>